<svg xmlns="http://www.w3.org/2000/svg" width="992" height="48"><g transform="translate(0 0)"><g class="nc-icon-wrapper"><rect x="3" y="3" fill="#E86C60" width="20" height="20"></rect> <rect x="25" y="3" fill="#72C472" width="20" height="20"></rect> <rect x="3" y="25" fill="#43A6DD" width="20" height="20"></rect> <rect x="25" y="25" fill="#EFD358" width="20" height="20"></rect></g></g><g transform="translate(48 0)"><g class="nc-icon-wrapper"><path fill="#B3B3B3" d="M38,30h-4V18h4c4.411,0,8-3.589,8-8s-3.589-8-8-8s-8,3.589-8,8v4H18v-4c0-4.411-3.589-8-8-8s-8,3.589-8,8 s3.589,8,8,8h4v12h-4c-4.411,0-8,3.589-8,8s3.589,8,8,8s8-3.589,8-8v-4h12v4c0,4.411,3.589,8,8,8s8-3.589,8-8S42.411,30,38,30z M34,10c0-2.206,1.794-4,4-4s4,1.794,4,4s-1.794,4-4,4h-4V10z M6,10c0-2.206,1.794-4,4-4s4,1.794,4,4v4h-4C7.794,14,6,12.206,6,10z M14,38c0,2.206-1.794,4-4,4s-4-1.794-4-4s1.794-4,4-4h4V38z M18,18h12v12H18V18z M38,42c-2.206,0-4-1.794-4-4v-4h4 c2.206,0,4,1.794,4,4S40.206,42,38,42z"></path></g></g><g transform="translate(96 0)"><g class="nc-icon-wrapper"><path fill="#B3B3B3" d="M38,30h-4V18h4c4.411,0,8-3.589,8-8s-3.589-8-8-8s-8,3.589-8,8v4H18v-4c0-4.411-3.589-8-8-8s-8,3.589-8,8 s3.589,8,8,8h4v12h-4c-4.411,0-8,3.589-8,8s3.589,8,8,8s8-3.589,8-8v-4h12v4c0,4.411,3.589,8,8,8s8-3.589,8-8S42.411,30,38,30z M34,10c0-2.206,1.794-4,4-4s4,1.794,4,4s-1.794,4-4,4h-4V10z M6,10c0-2.206,1.794-4,4-4s4,1.794,4,4v4h-4C7.794,14,6,12.206,6,10z M14,38c0,2.206-1.794,4-4,4s-4-1.794-4-4s1.794-4,4-4h4V38z M18,18h12v12H18V18z M38,42c-2.206,0-4-1.794-4-4v-4h4 c2.206,0,4,1.794,4,4S40.206,42,38,42z"></path></g></g><g transform="translate(144 0)"><g class="nc-icon-wrapper"><path fill="#B3B3B3" d="M42.998,35.227c-1.039,2.301-1.535,3.328-2.873,5.361c-1.864,2.839-4.494,6.375-7.753,6.405 c-2.895,0.027-3.639-1.884-7.569-1.861S20.054,47.027,17.159,47c-3.259-0.029-5.749-3.222-7.615-6.063 c-5.216-7.94-5.761-17.257-2.544-22.21c2.286-3.522,5.894-5.58,9.285-5.58c3.453,0,5.624,1.893,8.48,1.893 c2.77,0,4.457-1.896,8.45-1.896c3.018,0,6.216,1.643,8.495,4.482C34.243,21.717,35.457,32.376,42.998,35.227L42.998,35.227z"></path> <path fill="#B3B3B3" d="M30.607,8.176C32.058,6.314,33.158,3.687,32.758,1c-2.37,0.162-5.14,1.67-6.758,3.635 c-1.469,1.783-2.682,4.428-2.21,6.999C26.375,11.715,29.052,10.17,30.607,8.176L30.607,8.176z"></path></g></g><g transform="translate(192 0)"><g class="nc-icon-wrapper"><path d="M22.625,10.125c2.031-.472,5.813,2.937,7.937,6.75a41.774,41.774,0,0,1,4,12.625c.438,3.125,1.313,9.981-.812,11.553S26.592,43.5,23.233,43.562s-7.671-.124-9.171-4.374-1.937-7.626-1.374-10.438S16,20.938,17,19.5s1.029-1.266,1.4-3.688S20.329,10.658,22.625,10.125Z" fill="#fff"></path> <path d="M17.9,45.428c2.851-1.371,8.879-1.227,12.993,0s1.876-11.78.343-8.21a8.618,8.618,0,0,1-7.832,5.323c-6.6,0-8.68-4.728-8.68-4.728Z" fill="#020204"></path> <path d="M31.451,46.523c1.746,1.165,3.7-.048,4.715-1.034a14.146,14.146,0,0,1,3.586-2.671,8.842,8.842,0,0,0,3.2-2.021c.385-.65.336-1.4-.674-1.973a4.614,4.614,0,0,1-2.334-2.406c-.217-.963-.024-1.853-.77-2.431s-4.278-.605-5.293-.649-2.527-.385-2.96,0-.192,1.877-.168,2.7a44.208,44.208,0,0,1-.361,4.908C30.223,41.879,28.924,44.839,31.451,46.523Z" fill="#f5bd0c"></path> <path d="M17.8,16.411V7.659A6.659,6.659,0,0,1,24.455,1h0a6.659,6.659,0,0,1,6.659,6.659v6.009c0,2.166,2.779,5.017,4.583,7a16.048,16.048,0,0,1,3.537,8.3c.253,2.743-.191,5.9-2.526,6.965-2.057.939-4.067-.139-3.966-2.7.034-.847.393-5.523-.762-8.88a96.12,96.12,0,0,0-4.574-9.757s-8.275-1.72-8.275.337A8.88,8.88,0,0,1,17.8,20.742c-1.552,2.779-4.548,7.724-4.151,11.73,1.251,1.861,3.429,3.182,4.331,3.9s1.588,2.055,1.047,2.849-3.1.252-3.862,0S10.9,34.06,10.469,33.266a4.261,4.261,0,0,1-.036-3.429c.506-1.408,1.769-3.248,2.346-4.981a19.872,19.872,0,0,1,2.779-5.125C16.749,18.071,17.507,17.927,17.8,16.411Z" fill="#020204"></path> <ellipse cx="25.64" cy="10.444" rx="2.178" ry="3.116" fill="#fff"></ellipse> <path d="M21.86,10.292c.121,1.447-.592,2.687-1.594,2.771s-1.728-1.034-1.849-2.481.409-2.674,1.41-2.758S21.738,8.845,21.86,10.292Z" fill="#fff"></path> <ellipse cx="25.64" cy="10.66" rx="1.498" ry="1.057" transform="translate(14.045 35.891) rotate(-87.895)" fill="#020204"></ellipse> <ellipse cx="20.136" cy="10.735" rx="0.938" ry="1.353" transform="translate(-1.442 3.313) rotate(-9.083)" fill="#020204"></ellipse> <path d="M22.62,11.009c1.3,0,2.442,1.041,3.134,1.233s1.678.283,2.063,1-.1,1.636-1.155,2.165-2.334,2.022-4.234,2.022-2.6-1.732-3.3-2.286a1.166,1.166,0,0,1-.362-1.757C19.185,12.675,21.2,11.009,22.62,11.009Z" fill="#f5bd0c"></path> <path d="M18.77,45.585c1.2-1.955.409-3.754-.914-5.269a65.39,65.39,0,0,1-4.018-6.184c-.65-.987-1.54-1.877-2.43-1.733s-1.516,1.757-2.094,2.238-2.791.048-3.464.77-.048,3.3-.169,4.524-.77,1.876-.842,2.454.12,1.227,1.2,1.612,5.125,1.4,6.521,1.708S17.231,48.087,18.77,45.585Z" fill="#f5bd0c"></path></g></g><g transform="translate(240 0)"><g class="nc-icon-wrapper"><path d="M0,31s0,7,8,7H41a7,7,0,0,0,7-7Z" fill="#e6e6e6"></path><path d="M44,31V8a4,4,0,0,0-4-4H8A4,4,0,0,0,4,8V31Z" fill="#444"></path><path d="M18,31H30a0,0,0,0,1,0,0v2a1,1,0,0,1-1,1H19a1,1,0,0,1-1-1V31A0,0,0,0,1,18,31Z" fill="#b3b3b3"></path><rect x="6" y="8" width="36" height="21" fill="#867fe8"></rect><path d="M37,44A10,10,0,1,1,47,34,10.011,10.011,0,0,1,37,44Z" fill="#72c472"></path><path d="M35,39a1,1,0,0,1-.707-.293l-3-3a1,1,0,0,1,1.414-1.414L35,36.586l6.293-6.293a1,1,0,0,1,1.414,1.414l-7,7A1,1,0,0,1,35,39Z" fill="#fff"></path></g></g><g transform="translate(288 0)"><g class="nc-icon-wrapper"><path fill="#444444" d="M43,33H5c-1.10457,0-2,0.89543-2,2v8c0,1.10457,0.89543,2,2,2h38c1.10457,0,2-0.89543,2-2v-8 C45,33.89543,44.10457,33,43,33z"></path> <path fill="#B3B3B3" d="M32,11c-0.55273,0-1-0.44775-1-1V5H17v5c0,0.55225-0.44727,1-1,1s-1-0.44775-1-1V4c0-0.55225,0.44727-1,1-1 h16c0.55273,0,1,0.44775,1,1v6C33,10.55225,32.55273,11,32,11z"></path> <path fill="#636363" d="M45,9H3c-1.10457,0-2,0.89543-2,2v22c0,1.10457,0.89543,2,2,2h42c1.10457,0,2-0.89543,2-2V11 C47,9.89543,46.10457,9,45,9z"></path> <path fill="#EFD358" d="M28,39h-8c-0.55228,0-1-0.44772-1-1v-6c0-0.55228,0.44772-1,1-1h8c0.55228,0,1,0.44772,1,1v6 C29,38.55228,28.55228,39,28,39z"></path></g></g><g transform="translate(336 0)"><g class="nc-icon-wrapper"><path fill="#444444" d="M43,32H5c-1.10457,0-2,0.89543-2,2v9c0,1.10457,0.89543,2,2,2h38c1.10457,0,2-0.89543,2-2v-9 C45,32.89543,44.10457,32,43,32z"></path> <path fill="#444444" d="M32,11c-0.55273,0-1-0.44775-1-1V5H17v5c0,0.55225-0.44727,1-1,1s-1-0.44775-1-1V4c0-0.55225,0.44727-1,1-1 h16c0.55273,0,1,0.44775,1,1v6C33,10.55225,32.55273,11,32,11z"></path> <path fill="#636363" d="M45,9H3c-1.10457,0-2,0.89543-2,2v21c0,1.10457,0.89543,2,2,2h42c1.10457,0,2-0.89543,2-2V11 C47,9.89543,46.10457,9,45,9z"></path> <rect x="10" y="9" fill="#A67C52" width="4" height="23"></rect> <rect x="34" y="9" fill="#A67C52" width="4" height="23"></rect> <rect x="34" y="36" fill="#A67C52" width="4" height="9"></rect> <rect x="10" y="36" fill="#A67C52" width="4" height="9"></rect> <path fill="#E6E6E6" d="M15,37H9c-0.55229,0-1-0.44772-1-1v-4c0-0.55228,0.44771-1,1-1h6c0.55229,0,1,0.44772,1,1v4 C16,36.55228,15.55229,37,15,37z"></path> <path fill="#E6E6E6" d="M39,37h-6c-0.55228,0-1-0.44772-1-1v-4c0-0.55228,0.44772-1,1-1h6c0.55228,0,1,0.44772,1,1v4 C40,36.55228,39.55228,37,39,37z"></path> <rect x="10" y="37" fill="#916640" width="4" height="2"></rect> <rect x="34" y="37" fill="#916640" width="4" height="2"></rect></g></g><g transform="translate(384 0)"><g class="nc-icon-wrapper"><rect x="5" y="9" width="38" height="29" fill="#867fe8"></rect><path d="M40,6H8a4,4,0,0,0-4,4V35H44V10A4,4,0,0,0,40,6ZM6,32V10H42V32Z" fill="#444"></path><path d="M31,34v3H17V34H0a8,8,0,0,0,8,8H40a8,8,0,0,0,8-8Z" fill="#e6e6e6"></path><path d="M16,34H32v2a1,1,0,0,1-1,1H17a1,1,0,0,1-1-1V34Z" fill="#b3b3b3"></path><path d="M21,26a1,1,0,0,1-1-1V18a1,1,0,0,1,1.5-.864l6,3.5a1,1,0,0,1,0,1.728l-6,3.5A1.006,1.006,0,0,1,21,26Z" fill="#fff"></path></g></g><g transform="translate(432 0)"><g class="nc-icon-wrapper"><path fill="#E86C60" d="M2,7C1.448,7,1,7.448,1,8v10c0,0.552,0.448,1,1,1h36c0.552,0,1-0.448,1-1V8c0-0.552-0.448-1-1-1H2z"></path> <path fill="#C64B4B" d="M16,14h-6c-0.553,0-1-0.448-1-1s0.447-1,1-1h6c0.553,0,1,0.448,1,1S16.553,14,16,14z"></path> <path fill="#C64B4B" d="M23,14h-2c-0.553,0-1-0.448-1-1s0.447-1,1-1h2c0.553,0,1,0.448,1,1S23.553,14,23,14z"></path> <path fill="#9BCED3" d="M2,31c-0.552,0-1,0.448-1,1v10c0,0.552,0.448,1,1,1h36c0.552,0,1-0.448,1-1V32c0-0.552-0.448-1-1-1H2z"></path> <path fill="#76B5B5" d="M16,38h-6c-0.553,0-1-0.448-1-1s0.447-1,1-1h6c0.553,0,1,0.448,1,1S16.553,38,16,38z"></path> <path fill="#76B5B5" d="M23,38h-2c-0.553,0-1-0.448-1-1s0.447-1,1-1h2c0.553,0,1,0.448,1,1S23.553,38,23,38z"></path> <path fill="#DDBE99" d="M9,20v10c0,0.552,0.448,1,1,1h36c0.552,0,1-0.448,1-1V20c0-0.552-0.448-1-1-1H10C9.448,19,9,19.448,9,20z"></path> <path fill="#C6A279" d="M24,26h-6c-0.553,0-1-0.448-1-1s0.447-1,1-1h6c0.553,0,1,0.448,1,1S24.553,26,24,26z"></path> <path fill="#C6A279" d="M31,26h-2c-0.553,0-1-0.448-1-1s0.447-1,1-1h2c0.553,0,1,0.448,1,1S31.553,26,31,26z"></path></g></g><g transform="translate(480 0)"><g class="nc-icon-wrapper"><path d="M25.95,30c.032-.329.05-.662.05-1A10,10,0,0,0,6,29c0,.338.018.671.05,1Z" fill="#efd358"></path> <path d="M31.413,19.014,36.9,5.314a3.678,3.678,0,0,1,4.785-2.039c.094.038.186.08.277.125h0a3.68,3.68,0,0,1,1.643,4.938c-.045.089-.093.177-.145.262L36.509,20.072Z" fill="#e6e6e6"></path> <path d="M26,30a1,1,0,0,1-1-1A9,9,0,0,0,7,29a1,1,0,0,1-2,0,11,11,0,0,1,22,0A1,1,0,0,1,26,30Z" fill="#c19f85"></path> <path d="M12,30a1,1,0,0,1-1-1,5.006,5.006,0,0,1,5-5,1,1,0,0,1,0,2,3,3,0,0,0-3,3A1,1,0,0,1,12,30Z" fill="#c19f85"></path> <path d="M24,13v2h0a7,7,0,0,1-7-7V6h0A7,7,0,0,1,24,13Z" fill="#72c472"></path> <path d="M41.95,30c.032-.329.05-.662.05-1a10,10,0,0,0-20,0c0,.338.018.671.05,1Z" fill="#efd358"></path> <path d="M42,30a1,1,0,0,1-1-1,9,9,0,0,0-18,0,1,1,0,0,1-2,0,11,11,0,0,1,22,0A1,1,0,0,1,42,30Z" fill="#c19f85"></path> <path d="M36,30a1,1,0,0,1-1-1,3,3,0,0,0-6,0,1,1,0,0,1-2,0,5,5,0,0,1,10,0A1,1,0,0,1,36,30Z" fill="#c19f85"></path> <path d="M46,30H2a1,1,0,0,0,0,2H3.323l1.988,4.971A8,8,0,0,0,12.739,42H35.261a8,8,0,0,0,7.428-5.029L44.677,32H46a1,1,0,0,0,0-2Z" fill="#e6e6e6"></path></g></g><g transform="translate(528 0)"><g class="nc-icon-wrapper" fill="#212121"><path fill="#212121" d="M12.91448,14.92739c0,0,3.02816-0.22496,3.02816-3.77614c0-3.55126-2.47759-5.28428-5.61587-5.28428H4.5502 H4.38049H0v19.84575h4.38049H4.5502h5.77656c0,0,6.3041,0.19871,6.3041-5.85762 C16.63087,19.85509,16.90612,14.92739,12.91448,14.92739z M4.5502,9.39409h5.03325h0.74332c0,0,1.40394,0,1.40394,2.06468 s-0.82588,2.36405-1.76182,2.36405H4.5502V9.39409z M10.06052,22.18557H4.5502v-5.30362h5.77656 c0,0,2.09217-0.02748,2.09217,2.72531C12.41894,21.90255,10.88864,22.16254,10.06052,22.18557z"></path> <path fill="#212121" d="M25.03876,10.91613c-7.63172,0-7.62482,7.62486-7.62482,7.62486s-0.52373,7.58641,7.62504,7.58641 c0,0,6.79079,0.38787,6.79079-5.27744H28.3373c0,0,0.11635,2.13395-3.18196,2.13395c0,0-3.49252,0.23359-3.49252-3.45314h10.28331 C31.94613,19.53078,33.07117,10.91613,25.03876,10.91613z M28.14303,16.88195h-6.51911c0,0,0.42687-3.05913,3.49247-3.05913 C28.18203,13.82282,28.14303,16.88195,28.14303,16.88195z"></path> <rect data-color="color-2" x="20.76946" y="7" width="8.18766" height="2"></rect></g></g><g transform="translate(560 0)"><g class="nc-icon-wrapper"><circle fill-rule="evenodd" clip-rule="evenodd" fill="#EC4989" cx="24" cy="24" r="22"></circle> <path fill-rule="evenodd" clip-rule="evenodd" fill="#C51E60" d="M24,48C10.76634,48,0,37.23367,0,24S10.76634,0,24,0 s24,10.76634,24,24S37.23367,48,24,48z M44.24043,27.28526c-0.70131-0.22139-6.34512-1.90462-12.76904-0.87632 c2.68127,7.368,3.77242,13.36901,3.98248,14.61604C40.05281,37.91529,43.32676,32.98922,44.24043,27.28526z M32.00759,42.90177 c-0.30491-1.79855-1.49512-8.0667-4.37317-15.54565c-0.04508,0.01537-0.09014,0.02997-0.13522,0.04568 c-11.56254,4.02907-15.71318,12.04754-16.08208,12.80169C14.89291,42.91393,19.26098,44.53096,24,44.53096 C26.83974,44.53096,29.54627,43.95018,32.00759,42.90177z M8.77028,37.73798c0.46437-0.79491,6.09047-10.11026,16.66294-13.52769 c0.2672-0.08636,0.53661-0.16751,0.8078-0.24389c-0.51458-1.16453-1.0751-2.33039-1.662-3.47891 c-10.23733,3.06376-20.17138,2.93579-21.06828,2.91738c-0.00628,0.20814-0.01044,0.41677-0.01044,0.62638 C3.50029,29.29642,5.49619,34.10373,8.77028,37.73798z M3.93331,19.83267c0.91689,0.01211,9.36268,0.04878,18.95169-2.49764 c-3.39667-6.03807-7.05994-11.11453-7.60038-11.85568C9.54951,8.18445,5.26262,13.47144,3.93331,19.83267z M19.1961,4.10142 c0.56664,0.75871,4.28983,5.82892,7.64903,12.00077c7.28945-2.73216,10.37528-6.87988,10.74399-7.40503 C33.96901,5.48534,29.20873,3.53155,24,3.53155C22.34599,3.53155,20.73766,3.72984,19.1961,4.10142z M39.86806,11.06771 c-0.43216,0.58461-3.86734,4.98833-11.44684,8.08282c0.477,0.97645,0.93431,1.96957,1.36004,2.96928 c0.15089,0.35431,0.29785,0.70693,0.44164,1.05791c6.82102-0.8577,13.5985,0.51693,14.27436,0.65987 C44.45215,18.99909,42.72316,14.55604,39.86806,11.06771z"></path></g></g><g transform="translate(608 0)"><g class="nc-icon-wrapper"><path fill="#7F7F7F" d="M13,43c-0.20215,0,4.0459-17.29785,4.0459-17.29785c0.10352-0.33398,0.375-0.58984,0.71484-0.67285 c0.33887-0.08594,0.69922,0.0166,0.94629,0.26367l7,7c0.20508,0.20508,0.31055,0.48828,0.29004,0.77832 c-0.02051,0.28906-0.16504,0.55469-0.39746,0.72852l-12,9C13.42285,42.93359,13.21094,43,13,43z"></path> <path fill="#E6E6E6" d="M35.99219,45c-0.21289,0-0.4248-0.06836-0.59961-0.2002l-31.99219-24 c-0.29004-0.2168-0.43945-0.57227-0.3916-0.93066c0.04688-0.3584,0.28418-0.66309,0.62012-0.79785l40-16 c0.34082-0.13477,0.72949-0.07617,1.01074,0.16016c0.28223,0.23438,0.41309,0.60449,0.34082,0.96484l-8.00781,40 c-0.06738,0.33691-0.30273,0.61523-0.62402,0.73828C36.2334,44.97852,36.1123,45,35.99219,45z"></path> <path fill="#B3B3B3" d="M13.00098,43c-0.05371,0-0.10742-0.00391-0.16113-0.0127C12.35547,42.9082,12,42.49023,12,42V27 c0-0.31641,0.15039-0.61426,0.4043-0.80273l31-23c0.4248-0.31543,1.01855-0.24512,1.35938,0.15625 c0.34082,0.40332,0.30957,1.00098-0.07031,1.36719L17.19855,31.15095l-3.25031,11.16545C13.81055,42.72949,13.4248,43,13.00098,43z"></path></g></g><g transform="translate(656 0)"><g class="nc-icon-wrapper"><path fill="#69ACE0" d="M48,9.11341c-1.76603,0.78322-3.66389,1.31268-5.65607,1.55067 c2.03332-1.21873,3.5948-3.14867,4.33001-5.44828c-1.90268,1.12855-4.01024,1.94811-6.25344,2.3898 c-1.79636-1.914-4.35574-3.10992-7.18805-3.10992c-5.43885,0-9.84807,4.40923-9.84807,9.84756 c0,0.77191,0.0871,1.5234,0.25495,2.24422c-8.1844-0.41065-15.4407-4.33121-20.29778-10.28923 C2.49387,7.75272,2.0083,9.44432,2.0083,11.24909c0,3.41649,1.73858,6.43073,4.38093,8.19676 c-1.61427-0.05109-3.13272-0.49415-4.4605-1.23177c-0.00069,0.04115-0.00084,0.08231-0.00084,0.1238 c0,4.77144,3.39452,8.75168,7.8996,9.6563c-0.82642,0.22494-1.69641,0.34532-2.5945,0.34532 c-0.63458,0-1.25149-0.06173-1.8528-0.17661c1.25319,3.91234,4.89001,6.75958,9.19929,6.83914 c-3.37036,2.64116-7.61654,4.21549-12.23032,4.21549C1.55427,39.21751,0.77036,39.17088,0,39.08 c4.35814,2.79408,9.53447,4.42431,15.09573,4.42431c18.11374,0,28.0189-15.00571,28.0189-28.01916 c0-0.42694-0.00959-0.85164-0.02846-1.27394C45.01011,12.82274,46.67978,11.08826,48,9.11341z"></path></g></g><g transform="translate(704 0)"><g class="nc-icon-wrapper"><circle fill="#030502" cx="24" cy="24" r="24"></circle> <path fill="#FFFFFF" d="M39.38762,17.98096L24.76269,8.23106c-0.46199-0.30803-1.06344-0.30803-1.52548,0L8.61228,17.98096 C8.24553,18.22708,8,18.6582,8,19.12484v9.74991c0,0.472,0.25263,0.90768,0.61228,1.14377l14.62492,9.75002 c0.23099,0.15396,0.49701,0.23143,0.76295,0.23143c0.26553,0,0.53143-0.07747,0.76253-0.23143l14.62493-9.75002 C39.74139,29.78931,40,29.35213,40,28.87475v-9.74991C40,18.68246,39.77252,18.2359,39.38762,17.98096z M25.37508,11.94452 l10.77377,7.18198l-4.8123,3.21938l-5.96146-3.98783V11.94452z M22.62486,11.94452v6.41353l-5.96113,3.98783l-4.81269-3.21938 L22.62486,11.94452z M10.75016,21.69869l3.44035,2.3011l-3.44035,2.30116V21.69869z M22.62486,36.05507l-10.77382-7.18204 l4.81269-3.2185l5.96113,3.98701V36.05507z M24.00016,27.25284l-4.86359-3.25305l4.86359-3.25304l4.86322,3.25304L24.00016,27.25284 z M25.37508,36.05507v-6.41353l5.96146-3.98701l4.8123,3.2185L25.37508,36.05507z M37.24973,26.30095l-3.43991-2.30116 l3.43991-2.3011V26.30095z"></path></g></g><g transform="translate(752 0)"><g class="nc-icon-wrapper"><polygon fill="#CC4842" points="44,27 4,27 1,23 5,19 43,19 47,23 "></polygon> <path fill="#E6E6E6" d="M41,47H7c-1.105,0-2-0.895-2-2V3c0-1.105,0.895-2,2-2l24,0l12,12v32C43,46.105,42.105,47,41,47z"></path> <path fill="#B3B3B3" d="M31,1v10c0,1.105,0.895,2,2,2h10L31,1z"></path> <path fill="#E86C60" d="M45,41H3c-1.105,0-2-0.895-2-2V23h46v16C47,40.105,46.105,41,45,41z"></path> <path fill="#FFFFFF" d="M19.12,38.465c-0.387,0-0.754-0.037-1.101-0.112v-1.649c0.115,0.021,0.236,0.046,0.365,0.073 c0.129,0.026,0.269,0.04,0.419,0.04c0.351,0,0.602-0.105,0.752-0.316c0.15-0.212,0.226-0.573,0.226-1.086v-7.267h2.132v7.085 c0,1.062-0.233,1.868-0.698,2.414S20.051,38.465,19.12,38.465z"></path> <path fill="#FFFFFF" d="M28.745,33.615c0,0.487-0.124,0.919-0.371,1.297s-0.604,0.672-1.069,0.881 c-0.465,0.21-1.012,0.314-1.638,0.314c-0.523,0-0.961-0.037-1.316-0.11s-0.723-0.201-1.106-0.384v-1.891 c0.405,0.208,0.825,0.37,1.262,0.486s0.838,0.174,1.203,0.174c0.315,0,0.546-0.054,0.693-0.163s0.22-0.25,0.22-0.422 c0-0.107-0.03-0.201-0.088-0.282c-0.06-0.08-0.154-0.162-0.285-0.244c-0.13-0.082-0.479-0.251-1.044-0.505 c-0.512-0.232-0.896-0.458-1.152-0.677c-0.256-0.219-0.446-0.469-0.569-0.752c-0.124-0.283-0.186-0.617-0.186-1.004 c0-0.724,0.263-1.288,0.79-1.692s1.25-0.606,2.17-0.606c0.813,0,1.642,0.188,2.487,0.563l-0.65,1.638 c-0.734-0.336-1.368-0.504-1.901-0.504c-0.276,0-0.476,0.048-0.602,0.145s-0.188,0.217-0.188,0.359c0,0.154,0.08,0.292,0.239,0.414 c0.159,0.122,0.591,0.344,1.297,0.666c0.677,0.305,1.146,0.631,1.41,0.98C28.613,32.646,28.745,33.085,28.745,33.615z"></path></g></g><g transform="translate(800 0)"><g class="nc-icon-wrapper"><polygon fill="#990E0E" points="44,27 4,27 1,23 5,19 43,19 47,23 "></polygon> <path fill="#E6E6E6" d="M41,47H7c-1.105,0-2-0.895-2-2V3c0-1.105,0.895-2,2-2l24,0l12,12v32C43,46.105,42.105,47,41,47z"></path> <path fill="#B3B3B3" d="M31,1v10c0,1.105,0.895,2,2,2h10L31,1z"></path> <path fill="#E60000" d="M45,41H3c-1.105,0-2-0.895-2-2V23h46v16C47,40.105,46.105,41,45,41z"></path> <path fill="#FFFFFF" d="M10.492,38.465c-0.387,0-0.754-0.037-1.101-0.112v-1.649c0.115,0.021,0.236,0.046,0.365,0.073 c0.129,0.026,0.269,0.04,0.419,0.04c0.351,0,0.602-0.105,0.752-0.316c0.15-0.212,0.226-0.573,0.226-1.086v-7.267h2.132v7.085 c0,1.062-0.233,1.868-0.698,2.414S11.423,38.465,10.492,38.465z"></path> <path fill="#FFFFFF" d="M19.8,36l-0.387-1.472h-2.551L16.464,36h-2.331l2.562-7.885h2.831L22.12,36H19.8z M18.973,32.788 l-0.338-1.289c-0.079-0.286-0.175-0.657-0.287-1.112c-0.113-0.454-0.188-0.78-0.223-0.977c-0.032,0.182-0.096,0.482-0.191,0.902 c-0.095,0.418-0.305,1.244-0.631,2.476H18.973z"></path> <path fill="#FFFFFF" d="M27.378,28.147h2.374L27.18,36h-2.498l-2.562-7.853h2.385l1.069,3.979c0.222,0.885,0.344,1.501,0.365,1.848 c0.025-0.25,0.075-0.563,0.15-0.939s0.142-0.672,0.199-0.887L27.378,28.147z"></path> <path fill="#FFFFFF" d="M35.419,36l-0.387-1.472h-2.551L32.083,36h-2.331l2.562-7.885h2.831L37.739,36H35.419z M34.592,32.788 l-0.338-1.289c-0.079-0.286-0.175-0.657-0.287-1.112c-0.113-0.454-0.188-0.78-0.223-0.977c-0.032,0.182-0.096,0.482-0.191,0.902 c-0.095,0.418-0.305,1.244-0.631,2.476H34.592z"></path></g></g><g transform="translate(848 0)"><g class="nc-icon-wrapper"><path fill-rule="evenodd" clip-rule="evenodd" fill="#191717" d="M23.99845,0.59265C10.74637,0.59265,0,11.33769,0,24.59404 c0,10.60258,6.87606,19.59804,16.41386,22.77204c1.20004,0.22012,1.63806-0.52082,1.63806-1.15686 c0-0.56974-0.02077-2.07903-0.03241-4.08188c-6.67598,1.45035-8.08463-3.21718-8.08463-3.21718 c-1.09131-2.77253-2.66469-3.51067-2.66469-3.51067c-2.17907-1.4891,0.16487-1.4589,0.16487-1.4589 c2.40847,0.16973,3.67612,2.47329,3.67612,2.47329c2.14091,3.66758,5.6171,2.60854,6.98465,1.99416 c0.21805-1.55098,0.83804-2.60854,1.52373-3.20849c-5.32935-0.60569-10.93201-2.66468-10.93201-11.86154 c0-2.62004,0.93513-4.76241,2.47034-6.4401c-0.24678-0.60716-1.07038-3.0473,0.23529-6.35155c0,0,2.01508-0.64532,6.59981,2.46033 c1.91431-0.53232,3.9674-0.79855,6.00842-0.80783c2.03807,0.00928,4.09131,0.27551,6.00842,0.80783 c4.58193-3.10565,6.59333-2.46033,6.59333-2.46033c1.30935,3.30425,0.48561,5.74439,0.23883,6.35155 c1.53816,1.67769,2.46695,3.82007,2.46695,6.4401c0,9.21985-5.61135,11.24863-10.95794,11.84283 c0.86175,0.74094,1.62936,2.20573,1.62936,4.44447c0,3.20848-0.02947,5.79699-0.02947,6.5839 c0,0.64178,0.43228,1.38847,1.65029,1.15406C41.12967,44.18338,48,35.19382,48,24.59404 C48,11.33769,37.25348,0.59265,23.99845,0.59265z"></path></g></g><g transform="translate(896 0)"><g class="nc-icon-wrapper"><path fill="#43A6DD" d="M44.486,1.662C44.107,1.24,43.567,1,43,1H5C4.433,1,3.893,1.24,3.514,1.662 C3.134,2.083,2.952,2.646,3.011,3.209l4,38c0.086,0.824,0.673,1.51,1.474,1.724l15,4C23.653,46.978,23.827,47,24,47 s0.347-0.022,0.515-0.067l15-4c0.801-0.214,1.387-0.899,1.474-1.724l4-38C45.048,2.646,44.866,2.083,44.486,1.662z"></path> <path fill="#FFFFFF" d="M36,15.3L23.174,21H35.19l-1.327,14.596L24,38.062l-10-2.5V30h4v2.438l6,1.5l6.137-1.534L30.81,25H14v-4.3 L29.076,14H12v-4h24V15.3z"></path></g></g><g transform="translate(944 0)"><g class="nc-icon-wrapper"><path fill="#EA9860" d="M44.486,1.662C44.107,1.24,43.567,1,43,1H5C4.433,1,3.893,1.24,3.514,1.662 C3.134,2.083,2.952,2.646,3.011,3.209l4,38c0.086,0.824,0.673,1.51,1.474,1.724l15,4C23.653,46.978,23.827,47,24,47 s0.347-0.022,0.515-0.067l15-4c0.801-0.214,1.387-0.899,1.474-1.724l4-38C45.048,2.646,44.866,2.083,44.486,1.662z"></path> <path fill="#FFFFFF" d="M36,14H16.19l0.637,7H35.19l-1.327,14.596L24,38.062l-10-2.5V29h4v3.438l6,1.5l6.137-1.534L30.81,25H13.173 L11.81,10H36V14z"></path></g></g></svg>