<svg xmlns="http://www.w3.org/2000/svg" height="48" width="48" viewBox="0 0 48 48"><title>l check</title><g class="nc-icon-wrapper"><path d="M0,31s0,7,8,7H41a7,7,0,0,0,7-7Z" fill="#e6e6e6"></path><path d="M44,31V8a4,4,0,0,0-4-4H8A4,4,0,0,0,4,8V31Z" fill="#444"></path><path d="M18,31H30a0,0,0,0,1,0,0v2a1,1,0,0,1-1,1H19a1,1,0,0,1-1-1V31A0,0,0,0,1,18,31Z" fill="#b3b3b3"></path><rect x="6" y="8" width="36" height="21" fill="#867fe8"></rect><path d="M37,44A10,10,0,1,1,47,34,10.011,10.011,0,0,1,37,44Z" fill="#72c472"></path><path d="M35,39a1,1,0,0,1-.707-.293l-3-3a1,1,0,0,1,1.414-1.414L35,36.586l6.293-6.293a1,1,0,0,1,1.414,1.414l-7,7A1,1,0,0,1,35,39Z" fill="#fff"></path></g></svg>