<svg xmlns="http://www.w3.org/2000/svg" height="48" width="48" viewBox="0 0 48 48"><title>pasta</title><g class="nc-icon-wrapper"><path d="M25.95,30c.032-.329.05-.662.05-1A10,10,0,0,0,6,29c0,.338.018.671.05,1Z" fill="#efd358"></path> <path d="M31.413,19.014,36.9,5.314a3.678,3.678,0,0,1,4.785-2.039c.094.038.186.08.277.125h0a3.68,3.68,0,0,1,1.643,4.938c-.045.089-.093.177-.145.262L36.509,20.072Z" fill="#e6e6e6"></path> <path d="M26,30a1,1,0,0,1-1-1A9,9,0,0,0,7,29a1,1,0,0,1-2,0,11,11,0,0,1,22,0A1,1,0,0,1,26,30Z" fill="#c19f85"></path> <path d="M12,30a1,1,0,0,1-1-1,5.006,5.006,0,0,1,5-5,1,1,0,0,1,0,2,3,3,0,0,0-3,3A1,1,0,0,1,12,30Z" fill="#c19f85"></path> <path d="M24,13v2h0a7,7,0,0,1-7-7V6h0A7,7,0,0,1,24,13Z" fill="#72c472"></path> <path d="M41.95,30c.032-.329.05-.662.05-1a10,10,0,0,0-20,0c0,.338.018.671.05,1Z" fill="#efd358"></path> <path d="M42,30a1,1,0,0,1-1-1,9,9,0,0,0-18,0,1,1,0,0,1-2,0,11,11,0,0,1,22,0A1,1,0,0,1,42,30Z" fill="#c19f85"></path> <path d="M36,30a1,1,0,0,1-1-1,3,3,0,0,0-6,0,1,1,0,0,1-2,0,5,5,0,0,1,10,0A1,1,0,0,1,36,30Z" fill="#c19f85"></path> <path d="M46,30H2a1,1,0,0,0,0,2H3.323l1.988,4.971A8,8,0,0,0,12.739,42H35.261a8,8,0,0,0,7.428-5.029L44.677,32H46a1,1,0,0,0,0-2Z" fill="#e6e6e6"></path></g></svg>