<svg xmlns="http://www.w3.org/2000/svg" height="48" width="48" viewBox="0 0 48 48"><title>pc play media</title><g class="nc-icon-wrapper"><rect x="5" y="9" width="38" height="29" fill="#867fe8"></rect><path d="M40,6H8a4,4,0,0,0-4,4V35H44V10A4,4,0,0,0,40,6ZM6,32V10H42V32Z" fill="#444"></path><path d="M31,34v3H17V34H0a8,8,0,0,0,8,8H40a8,8,0,0,0,8-8Z" fill="#e6e6e6"></path><path d="M16,34H32v2a1,1,0,0,1-1,1H17a1,1,0,0,1-1-1V34Z" fill="#b3b3b3"></path><path d="M21,26a1,1,0,0,1-1-1V18a1,1,0,0,1,1.5-.864l6,3.5a1,1,0,0,1,0,1.728l-6,3.5A1.006,1.006,0,0,1,21,26Z" fill="#fff"></path></g></svg>